<svg width="49" height="61" xmlns="http://www.w3.org/2000/svg"><g fill="none" fill-rule="evenodd"><path d="M15.928 32.09a13.291 13.291 0 0 0 3.757-.8c7.473-2.903 11.223-11.389 8.386-18.977C25.232 4.725 16.877.893 9.384 3.743 1.892 6.593-1.916 15.053.868 22.66a24.36 24.36 0 0 0 3.028 4.74c2.298 2.93 9.398 10.63 9.744 11l1.39 1.49.898-7.8z" fill="#CCEAFF" fill-rule="nonzero"/><path d="M28.129 6.753A12.12 12.12 0 0 1 40.663 4.26c6.254 2.346 9.43 9.308 7.105 15.569a19.89 19.89 0 0 1-2.5 3.9c-1.92 2.41-7.83 8.74-8.13 9L35.958 34l-.75-6.42a11.34 11.34 0 0 1-3.13-.65 12.076 12.076 0 0 1-4.283-2.789" stroke="#1060E1" stroke-linejoin="round"/><circle fill="#CCEAFF" fill-rule="nonzero" cx="38.607" cy="16.726" r="7.38"/><circle fill="#1060E1" fill-rule="nonzero" cx="39.471" cy="12.523" r="1"/><circle fill="#1060E1" fill-rule="nonzero" cx="33.476" cy="12.487" r="1"/><path d="M39.75 17.55a4.22 4.22 0 0 0-6.52 0" stroke="#1060E1" stroke-linecap="round" stroke-linejoin="round"/><path d="M30.015 11.048a7.38 7.38 0 1 1 .098 7.995M17.51 29.779a13.91 13.91 0 0 0 3.81-.79c7.587-2.9 11.4-11.39 8.525-18.987C26.97 2.406 18.49-1.433 10.885 1.417 3.28 4.267-.585 12.734 2.24 20.35a23.92 23.92 0 0 0 3.08 4.74c2.33 2.93 9.52 10.63 9.88 11l1.4 1.49.91-7.8z" stroke="#1060E1" stroke-linejoin="round"/><circle stroke="#1060E1" fill="#FFF" fill-rule="nonzero" stroke-linejoin="round" cx="15.5" cy="16.5" r="9"/><circle fill="#1060E1" fill-rule="nonzero" cx="11.478" cy="13.564" r="1"/><circle fill="#1060E1" fill-rule="nonzero" cx="19.529" cy="13.568" r="1"/><path d="M11.23 17.57a5.32 5.32 0 0 0 8.23 0" stroke="#1060E1" stroke-linecap="round" stroke-linejoin="round"/><path d="M33.948 38.836c0 3.79-2.67 7.89-6 7.89s-5.95-4.1-5.95-7.89 2.66-5.83 5.95-5.83 6 2.04 6 5.83zM18.018 57.952c.307-5.524 4.869-9.909 10.452-9.909 4.64 0 8.574 3.028 9.947 7.222C36.212 58.682 31.926 61 27 61c-3.484 0-6.648-1.16-8.982-3.048zm14.99-1.648v.4h1v-.4h-1zm-4.232-5.832a6.22 6.22 0 0 1 1.916 1.712c.403.562.717 1.19.927 1.855l.953-.302a7.63 7.63 0 0 0-1.07-2.14 7.227 7.227 0 0 0-2.228-1.992l-.498.867z" fill="#FFB935" fill-rule="nonzero"/><path d="M16.49 56.475c.273-5.583 4.89-10.025 10.544-10.025 5.629 0 10.229 4.403 10.54 9.95M32.45 37.404c0 3.831-2.67 7.976-6 7.976s-5.95-4.145-5.95-7.976c0-3.831 2.66-5.893 5.95-5.893s6 2.062 6 5.893z" stroke="#EE7B06"/></g></svg>